PathFileType	4	(X/Y/Z)	Run_300 01
DataRate	CameraRate	NumFrames	NumMarkers	Units	OrigDataRate	OrigDataStartFrame	OrigNumFrames
120	120	4	42	mm	120	481	128
Frame#	Time	LASI			LPSI			RPSI			RTH1			RTH2			RTH3			LTH1			LTH2			LTH3			RTB1			RTB2			RTB3			LTB1			LTB2			RCAL			RTOE			RMT5			LCAL			LMT5			LACR			RACR			CLAV			C7			RUA1			RUA2			RUA3			RLEL			RMEL			LUA1			LUA2			LUA3			LLEL			LMEL			RFAsuperior			RFAradius			RFAulna			LFAsuperior			LFAradius			LFAulna			LTB3			LTOE			RASI		
		X1	Y1	Z1	X2	Y2	Z2	X3	Y3	Z3	X4	Y4	Z4	X5	Y5	Z5	X6	Y6	Z6	X7	Y7	Z7	X8	Y8	Z8	X9	Y9	Z9	X10	Y10	Z10	X11	Y11	Z11	X12	Y12	Z12	X13	Y13	Z13	X14	Y14	Z14	X15	Y15	Z15	X16	Y16	Z16	X17	Y17	Z17	X18	Y18	Z18	X19	Y19	Z19	X20	Y20	Z20	X21	Y21	Z21	X22	Y22	Z22	X23	Y23	Z23	X24	Y24	Z24	X25	Y25	Z25	X26	Y26	Z26	X27	Y27	Z27	X28	Y28	Z28	X29	Y29	Z29	X30	Y30	Z30	X31	Y31	Z31	X32	Y32	Z32	X33	Y33	Z33	X34	Y34	Z34	X35	Y35	Z35	X36	Y36	Z36	X37	Y37	Z37	X38	Y38	Z38	X39	Y39	Z39	X40	Y40	Z40	X41	Y41	Z41	X42	Y42	Z42	

481	  4.008333	786.449907	981.921075	-502.522844	614.055030	1002.811506	-406.133313	615.848388	1001.005513	-319.570941	781.075693	795.697563	-206.256929	879.078094	700.251200	-224.959952	841.339799	568.962623	-210.191381	747.449388	839.283280	-542.759831	805.377570	726.981084	-529.332330	748.766988	586.332264	-513.289685	761.768328	428.694958	-271.311574	691.200876	461.454924	-221.201255	583.441575	433.505878	-291.462434	770.874167	348.243590	-426.029399	691.242412	260.796375	-467.462033	450.455020	535.315047	-302.732649	430.163565	316.256388	-295.053604	410.955776	354.076317	-210.200151	512.963435	107.387524	-383.667433	698.274989	 59.117992	-466.483493	781.061144	1409.123841	-579.376134	779.294204	1432.601811	-199.509050	879.544298	1383.967587	-358.730641	746.597951	1479.071015	-396.476792	731.546122	1337.135437	-133.295935	729.504227	1266.218332	-131.769310	631.575051	1283.618963	-97.721734	642.469754	1195.379296	-54.242438	581.713061	1183.873180	-119.238284	749.122536	1340.371310	-636.814466	689.514813	1270.683851	-625.240157	734.355228	1260.740351	-687.835514	718.557946	1166.311607	-745.614520	683.771309	1105.890387	-689.209907	711.031344	1152.001042	-85.904942	823.962739	1086.302104	-193.272242	782.000052	1035.425265	-170.482987	789.196353	1175.383634	-725.718709	919.776483	1176.793405	-608.512948	934.592837	1125.316971	-650.597572	673.022636	188.380535	-388.199085	728.066778	 71.883858	-379.534918	786.507717	974.744998	-248.915166	
482	  4.016667	785.426397	983.000642	-504.158281	613.592646	1005.322200	-407.474930	615.775846	1003.403816	-321.506988	784.592897	800.997343	-206.199113	887.085490	709.635438	-225.730212	854.217432	577.680747	-210.435082	740.622774	840.286866	-542.936899	796.204335	726.652282	-529.030398	735.119013	587.410207	-513.058687	779.860457	431.839761	-271.820365	708.773816	462.192728	-220.941223	601.986713	429.769608	-290.971062	749.838179	348.561828	-425.816043	668.874935	262.493999	-467.474842	462.775167	524.237104	-298.942151	456.027676	304.376332	-294.882460	434.362379	339.514320	-209.194790	488.414091	109.429159	-384.021953	673.042068	 59.078169	-466.694004	784.326176	1411.243892	-579.356355	774.710133	1436.486410	-199.618610	878.578429	1387.387090	-356.904062	746.057742	1482.004632	-397.305935	724.349859	1342.206542	-133.715562	721.975628	1271.391425	-130.930491	622.587437	1289.157569	-100.843331	630.991018	1200.817856	-56.105072	573.471938	1189.864772	-123.438507	754.332001	1340.905317	-635.945419	695.070557	1270.364261	-623.995568	740.188764	1260.115539	-685.230184	727.134869	1164.112381	-741.619150	694.268144	1104.041054	-683.862834	700.102951	1156.072237	-84.477067	817.596849	1090.495928	-187.298090	773.821496	1039.998435	-167.581226	797.634611	1175.255305	-721.517980	926.692203	1182.122449	-601.967078	943.952851	1130.835558	-643.532704	649.707083	189.620889	-388.543187	703.144098	 71.366919	-380.093801	786.388448	977.532811	-249.993552	
483	  4.025000	784.409640	984.250338	-504.942739	613.426247	1008.593519	-408.311276	616.076246	1006.963101	-322.916241	788.629104	807.383412	-206.207393	894.492501	719.508344	-226.652528	866.320004	587.438215	-210.827901	734.389912	841.875812	-542.771663	787.749531	727.148520	-527.957743	721.199299	589.223891	-512.327590	797.629682	435.824873	-272.483015	725.572447	462.757596	-220.955485	620.529371	425.207635	-291.037532	728.386582	349.775686	-425.326479	646.186242	265.108703	-467.381894	474.880086	511.020741	-296.037486	483.097000	291.286132	-294.991723	458.846598	323.886344	-208.267900	464.146601	112.465897	-384.701827	647.730145	 59.070474	-466.698121	787.772999	1414.595466	-578.996693	770.114391	1441.252674	-199.705941	877.569593	1391.850737	-354.699027	745.713911	1485.756272	-397.791199	717.411126	1348.283344	-134.083359	714.569076	1277.627108	-130.182567	613.993226	1295.743935	-103.598312	620.113780	1207.542190	-57.970472	565.682030	1196.948179	-127.488052	759.482693	1342.920718	-634.808247	700.118860	1272.151153	-622.809843	746.094193	1261.134080	-682.458032	735.081300	1163.939239	-737.247807	703.041988	1104.368747	-678.322191	689.877127	1162.368939	-83.536353	811.518481	1097.212919	-181.477915	766.521967	1046.798203	-164.974321	805.263822	1177.048033	-716.758651	932.275026	1188.775362	-594.819276	951.652105	1137.418293	-635.463621	626.209669	191.632422	-388.808452	678.292184	 71.002586	-380.657109	786.562913	981.427361	-250.525675	
484	  4.033333	783.577849	985.788596	-505.426799	613.625205	1012.434467	-408.702082	616.545028	1011.578456	-323.707096	793.066864	814.681862	-206.252863	901.249396	729.529906	-227.749480	877.577002	597.669636	-211.333919	729.491433	843.958131	-542.232124	779.881471	728.111737	-526.260182	706.858498	592.006920	-510.989187	815.031234	440.452231	-273.274689	741.721773	463.017818	-221.135491	639.178254	419.586579	-291.250274	706.740749	351.856701	-424.601979	623.432455	268.626605	-467.171242	487.153211	495.822645	-294.089774	511.389030	277.408861	-295.589036	484.635943	307.543459	-207.449466	440.456558	116.804056	-385.853955	622.387285	 59.090551	-466.540682	791.210691	1419.116299	-578.175034	765.545462	1446.770981	-199.797772	876.466955	1397.246550	-352.158891	745.338664	1490.146802	-397.895147	710.779364	1355.228179	-134.433047	707.497936	1284.722412	-129.572393	605.982974	1303.253552	-106.147746	610.175890	1215.503270	-59.889138	558.307816	1204.881315	-131.306333	764.448973	1346.310361	-633.456420	704.795951	1275.667552	-621.648344	752.112840	1263.686423	-679.706016	742.429712	1165.597856	-732.909816	710.020381	1106.743964	-673.097204	680.701948	1170.707128	-83.107929	805.692861	1105.662744	-176.064547	760.043623	1055.196607	-162.466068	812.120078	1180.411815	-711.715750	936.536087	1196.358090	-587.291631	957.623134	1144.685348	-626.600662	602.903654	194.459560	-389.141473	653.642604	 70.962797	-381.199938	786.853418	986.455461	-250.364862	
